<?xml version="1.0" encoding="UTF-8" ?>
<!DOCTYPE svg PUBLIC "-//W3C//DTD SVG 1.1//EN" "http://www.w3.org/Graphics/SVG/1.1/DTD/svg11.dtd">
<svg width="1416pt" height="864pt" viewBox="0 0 1416 864" version="1.1" xmlns="http://www.w3.org/2000/svg">
<g id="#000000ff">
<path fill="#000000" opacity="1.00" d=" M 174.56 74.52 C 196.32 70.50 218.04 80.58 232.29 96.72 C 397.63 265.08 562.99 433.40 728.25 601.84 C 730.60 605.11 734.78 604.15 736.70 600.82 C 903.12 431.87 1069.11 262.52 1236.26 94.26 C 1257.95 67.85 1301.93 67.68 1325.59 91.42 C 1341.00 105.68 1356.16 120.24 1369.64 136.38 C 1381.01 152.77 1378.17 173.71 1376.82 192.40 C 1365.39 218.88 1340.66 235.96 1321.75 256.75 C 1142.11 439.12 962.25 621.25 782.78 803.77 C 767.03 821.90 740.13 833.58 716.61 825.42 C 695.25 821.23 681.71 802.30 666.75 788.25 C 476.23 594.77 286.09 400.92 95.24 207.77 C 78.53 183.08 80.73 145.14 104.23 125.21 C 124.99 105.64 143.09 76.09 174.56 74.52 Z" />
</g>
</svg>
