<?xml version="1.0" encoding="UTF-8" ?>
<!DOCTYPE svg PUBLIC "-//W3C//DTD SVG 1.1//EN" "http://www.w3.org/Graphics/SVG/1.1/DTD/svg11.dtd">
<svg width="178pt" height="275pt" viewBox="0 0 178 275" version="1.1" xmlns="http://www.w3.org/2000/svg">
<g id="#aa9b77ff">
<path fill="#aa9b77" opacity="1.00" d=" M 137.39 0.00 L 137.52 0.00 C 142.36 0.30 147.32 1.66 150.97 5.00 C 154.69 8.50 158.90 11.51 162.11 15.51 C 165.52 19.87 169.68 23.53 173.47 27.53 C 180.00 35.75 178.92 49.08 170.97 56.00 C 143.90 82.93 116.96 109.99 89.94 136.97 C 116.93 164.02 144.08 190.89 170.91 218.09 C 171.60 218.91 172.30 219.73 173.01 220.55 C 175.69 224.15 177.42 228.34 177.99 232.81 L 178.00 229.61 L 178.00 235.47 C 177.59 239.41 175.91 243.01 174.38 246.60 C 167.24 253.73 160.13 260.88 153.00 268.02 C 151.34 269.67 149.44 271.03 147.59 272.46 C 139.42 276.23 128.92 275.23 122.57 268.50 C 84.17 230.19 45.87 191.78 7.48 153.46 C 1.76 148.88 -0.62 141.03 0.51 133.92 C 0.94 129.49 3.62 125.82 5.93 122.18 L 6.17 122.99 C 8.58 118.36 13.02 115.27 16.55 111.54 C 21.53 107.91 25.64 103.31 29.99 99.00 C 35.83 92.25 41.73 85.44 48.87 80.00 C 54.97 72.76 61.96 66.31 68.52 59.48 C 79.24 49.21 89.44 38.42 100.04 28.03 C 108.62 20.94 115.90 12.48 124.02 4.90 C 127.65 1.59 132.61 0.33 137.39 0.00 Z" />
</g>
</svg>
