<?xml version="1.0" encoding="UTF-8" ?>
<!DOCTYPE svg PUBLIC "-//W3C//DTD SVG 1.1//EN" "http://www.w3.org/Graphics/SVG/1.1/DTD/svg11.dtd">
<svg width="439pt" height="328pt" viewBox="0 0 439 328" version="1.1" xmlns="http://www.w3.org/2000/svg">
<g id="#aa9b77ff">
<path fill="#aa9b77" opacity="1.00" d=" M 379.37 1.65 C 387.38 -0.90 396.65 1.47 402.48 7.52 C 412.26 17.40 422.07 27.26 432.00 37.00 C 435.53 40.34 437.94 44.73 439.00 49.47 L 439.00 58.52 C 437.92 62.99 435.74 67.18 432.47 70.43 C 349.62 153.26 266.78 236.10 183.95 318.95 C 179.74 323.71 173.96 327.25 167.59 328.00 L 162.47 328.00 C 157.34 327.28 152.33 325.07 148.97 321.03 C 101.73 273.55 54.21 226.34 6.96 178.86 C -1.24 171.03 -1.40 156.60 6.53 148.54 C 17.36 137.69 28.15 126.81 39.05 116.04 C 43.76 111.45 50.58 109.42 57.06 110.29 C 63.62 110.80 68.88 115.21 73.50 119.49 C 90.46 136.54 107.53 153.47 124.47 170.53 C 127.36 173.96 130.28 177.37 133.57 180.43 C 144.04 191.00 154.71 201.37 165.10 212.01 C 232.09 145.03 299.04 78.01 366.06 11.06 C 369.80 7.10 373.92 3.05 379.37 1.65 Z" />
</g>
</svg>
