<?xml version="1.0" encoding="UTF-8" ?>
<!DOCTYPE svg PUBLIC "-//W3C//DTD SVG 1.1//EN" "http://www.w3.org/Graphics/SVG/1.1/DTD/svg11.dtd">
<svg width="53pt" height="40pt" viewBox="0 0 53 40" version="1.1" xmlns="http://www.w3.org/2000/svg">
<g id="#ffffffff">
<path fill="#ffffff" opacity="1.00" d=" M 4.43 1.82 C 5.63 1.16 6.86 0.56 8.12 0.01 C 9.65 2.09 10.05 4.66 10.48 7.13 C 14.55 7.25 18.63 7.27 22.66 6.61 C 22.53 3.64 24.49 1.50 27.36 1.04 C 27.87 3.07 28.31 5.12 28.74 7.18 C 27.14 8.64 24.11 9.29 24.09 11.87 C 25.90 11.25 27.54 10.25 29.29 9.49 C 30.20 12.13 27.52 13.01 25.94 14.32 C 26.91 16.47 28.67 14.36 30.04 13.91 C 30.30 14.41 30.83 15.42 31.10 15.92 C 30.11 16.62 29.12 17.33 28.12 18.03 C 28.35 18.38 28.79 19.09 29.02 19.44 C 30.61 18.56 32.29 16.95 33.91 18.77 C 32.80 19.77 30.23 20.71 31.55 22.69 C 32.93 21.80 34.33 20.93 35.76 20.10 C 40.67 22.75 46.27 22.70 51.62 23.68 C 52.93 26.94 53.11 30.53 52.82 33.99 C 52.47 35.76 50.31 35.95 49.00 36.70 C 46.80 32.37 44.88 39.47 41.71 38.98 C 41.27 38.31 40.38 36.98 39.94 36.31 C 39.34 37.49 38.76 38.68 38.21 39.88 C 36.50 39.84 34.80 39.76 33.11 39.55 C 32.90 38.23 32.69 36.80 31.19 36.52 C 30.95 37.27 30.48 38.76 30.24 39.51 C 28.51 39.28 26.80 38.99 25.09 38.61 C 24.91 38.09 24.56 37.05 24.38 36.54 C 22.58 35.82 20.75 35.18 18.91 34.60 C 18.70 35.15 18.27 36.26 18.06 36.81 C 16.22 36.88 14.37 36.86 12.54 36.66 C 12.41 35.99 12.14 34.66 12.01 34.00 C 10.59 34.23 9.61 35.11 9.07 36.42 C 6.44 36.55 3.82 36.30 1.24 35.83 C 1.71 30.36 -1.16 24.87 0.93 19.54 C 6.47 21.20 12.68 24.58 13.51 30.92 C 13.60 32.13 15.00 30.54 15.53 30.65 C 14.33 23.99 8.30 19.81 2.21 17.99 C 5.75 13.39 7.18 7.17 4.43 1.82 Z" />
</g>
</svg>
