<?xml version="1.0" encoding="UTF-8" ?>
<!DOCTYPE svg PUBLIC "-//W3C//DTD SVG 1.1//EN" "http://www.w3.org/Graphics/SVG/1.1/DTD/svg11.dtd">
<svg width="494pt" height="439pt" viewBox="0 0 494 439" version="1.1" xmlns="http://www.w3.org/2000/svg">
<g id="#ffffffff">
<path fill="#ffffff" opacity="1.00" d=" M 29.46 0.00 L 88.09 0.00 C 96.80 1.06 105.60 -0.36 114.29 0.74 C 120.46 2.47 125.74 6.75 128.30 12.67 C 131.63 26.66 134.39 40.79 137.24 54.89 C 148.15 55.22 159.07 54.95 169.98 55.04 C 270.99 55.05 371.99 55.01 473.00 55.06 C 480.63 54.53 487.43 59.52 491.31 65.74 C 494.01 71.43 493.87 77.96 492.30 83.95 C 479.03 142.13 465.85 200.32 452.51 258.48 C 451.94 262.27 449.68 265.37 447.22 268.18 C 446.96 268.45 446.45 268.99 446.19 269.25 C 442.20 272.50 437.30 274.59 432.08 274.31 C 348.71 274.26 265.34 274.37 181.98 274.26 C 184.18 283.16 185.57 292.26 187.61 301.21 C 263.08 301.10 338.55 301.21 414.02 301.16 C 417.82 301.11 421.68 301.37 425.26 302.77 C 425.75 303.01 426.74 303.50 427.24 303.74 C 428.46 304.64 429.67 305.55 430.86 306.50 L 431.45 306.40 C 431.64 306.74 432.01 307.44 432.20 307.79 C 435.88 312.23 438.22 317.95 437.42 323.80 C 436.27 331.68 434.09 339.36 432.39 347.13 C 440.23 350.53 446.38 356.82 451.36 363.61 C 460.35 377.20 461.77 395.43 455.22 410.33 C 451.86 417.17 447.07 423.38 441.19 428.25 C 426.06 440.43 403.62 441.73 386.84 432.22 C 385.84 431.51 384.83 430.83 383.81 430.18 C 382.13 428.76 380.43 427.38 378.59 426.19 L 378.48 425.76 C 362.78 412.05 358.42 387.26 368.05 368.82 C 370.54 364.25 373.00 359.06 377.76 356.49 C 350.52 356.82 323.28 356.53 296.04 356.64 C 263.62 356.53 231.20 356.83 198.78 356.48 C 203.87 359.89 206.13 365.73 209.20 370.75 C 213.63 381.67 214.16 394.04 210.88 405.35 C 208.89 411.57 205.27 417.12 201.17 422.16 C 200.94 422.43 200.48 422.97 200.25 423.24 C 197.28 427.04 193.07 429.50 189.21 432.27 C 172.79 441.38 150.91 440.64 135.97 428.90 C 129.29 424.26 124.42 417.48 120.74 410.33 C 115.38 397.25 115.32 382.07 121.41 369.24 C 125.90 360.90 132.31 353.29 140.71 348.71 C 134.27 318.79 128.46 288.74 122.15 258.79 C 112.49 211.02 102.58 163.30 92.93 115.52 C 88.64 95.56 84.96 75.47 80.56 55.53 C 61.07 55.74 41.57 55.61 22.08 55.61 C 13.71 55.76 5.44 50.93 2.08 43.17 C -0.48 36.40 0.99 29.02 0.59 21.97 C 0.21 16.42 2.18 10.96 5.83 6.81 C 8.10 5.07 10.09 2.89 12.77 1.76 C 20.30 -1.04 28.75 0.96 36.49 0.69 L 29.46 0.00 Z" />
</g>
</svg>
